<svg id="Background" xmlns="http://www.w3.org/2000/svg" xmlns:xlink="http://www.w3.org/1999/xlink" viewBox="0 0 423.38 515.6"><defs><style>.cls-1{fill:#9c9c9c;}.cls-11,.cls-2,.cls-6,.cls-7,.cls-8,.cls-9{fill:none;}.cls-2{stroke:#2b2b2b;stroke-width:3px;}.cls-3{fill:#595959;}.cls-4{fill:#30bf3c;}.cls-11,.cls-12,.cls-4,.cls-5,.cls-6,.cls-8{stroke:#191919;}.cls-11,.cls-12,.cls-4,.cls-5,.cls-6,.cls-7,.cls-8,.cls-9{stroke-linecap:round;stroke-linejoin:round;}.cls-11,.cls-12,.cls-4,.cls-5{stroke-width:2px;}.cls-5{fill:#bf3030;}.cls-6{stroke-width:11px;}.cls-7,.cls-9{stroke:#3039bf;}.cls-7{stroke-width:8px;}.cls-8{stroke-width:6px;}.cls-9{stroke-width:4px;}.cls-10,.cls-12{fill:#3039bf;}</style><symbol id="Box" data-name="Box" viewBox="0 0 46.75 46.75"><rect class="cls-1" x="1.5" y="1.5" width="43.75" height="43.75"/><line class="cls-1" x1="1.5" y1="1.5" x2="45.25" y2="45.25"/><line class="cls-1" x1="45.25" y1="1.5" x2="1.5" y2="45.25"/><rect class="cls-2" x="1.5" y="1.5" width="43.75" height="43.75"/><line class="cls-2" x1="1.5" y1="1.5" x2="45.25" y2="45.25"/><line class="cls-2" x1="45.25" y1="1.5" x2="1.5" y2="45.25"/></symbol></defs><title>TankyWeb</title><rect class="cls-3" x="23.38" y="64.17" width="400" height="400"/><use width="46.75" height="46.75" transform="translate(160.5 70.44) scale(1 2.73)" xlink:href="#Box"/><use width="46.75" height="46.75" transform="translate(384.88 154.61) rotate(45)" xlink:href="#Box"/><use width="46.75" height="46.75" transform="matrix(1.68, 1.68, -0.71, 0.71, 329.07, 164.92)" xlink:href="#Box"/><use width="46.75" height="46.75" transform="translate(112.87 111.3)" xlink:href="#Box"/><use width="46.75" height="46.75" transform="translate(205.75 111.3)" xlink:href="#Box"/><use width="46.75" height="46.75" transform="matrix(0.71, 0.71, -1.71, 1.71, 111.65, 404.27)" xlink:href="#Box"/><use width="46.75" height="46.75" transform="translate(317.11 440.8)" xlink:href="#Box"/><use width="46.75" height="46.75" transform="translate(45.93 37.3)" xlink:href="#Box"/><use width="46.75" height="46.75" transform="translate(0 73.04) scale(1 1.82)" xlink:href="#Box"/><use width="46.75" height="46.75" transform="matrix(1.44, -1.44, 0.71, 0.71, 276.09, 66.39)" xlink:href="#Box"/><use width="46.75" height="46.75" transform="translate(370.38 36.61) rotate(45)" xlink:href="#Box"/><g id="body"><rect class="cls-4" x="45.93" y="244.97" width="30" height="40"/><polygon class="cls-4" points="75.93 284.97 45.93 284.97 60.93 244.97 75.93 284.97"/></g><g id="gun"><rect class="cls-4" x="33.71" y="170.79" width="8" height="30" transform="translate(25.31 63.79) rotate(0.6)"/><circle class="cls-4" cx="37.55" cy="200.79" r="10" transform="translate(-140.25 300.43) rotate(-89.4)"/></g><g id="body-2" data-name="body"><rect class="cls-5" x="232.06" y="102.95" width="30" height="40" transform="translate(440.04 404.81) rotate(-154.38)"/><polygon class="cls-5" points="265.56 162.6 292.61 175.57 261.79 205.15 265.56 162.6"/></g><g id="gun-2" data-name="gun"><rect class="cls-5" x="230.68" y="116.42" width="8" height="30" transform="translate(282.24 463.48) rotate(-124.41)"/><circle class="cls-5" cx="247.06" cy="122.95" r="10" transform="translate(-2.87 225.29) rotate(-34.41)"/></g><g id="body-3" data-name="body"><rect class="cls-6" x="312.22" y="284.14" width="40" height="30" transform="translate(-54.09 542.24) rotate(-65.59)"/><rect class="cls-7" x="312.22" y="284.14" width="40" height="30" transform="translate(-54.09 542.24) rotate(-65.59)"/><rect class="cls-8" x="312.22" y="284.14" width="40" height="30" transform="translate(-54.09 542.24) rotate(-65.59)"/><rect class="cls-9" x="312.22" y="284.14" width="40" height="30" transform="translate(-54.09 542.24) rotate(-65.59)"/><rect class="cls-10" x="312.22" y="284.14" width="40" height="30" transform="translate(-54.09 542.24) rotate(-65.59)"/><rect class="cls-11" x="312.22" y="284.14" width="40" height="30" transform="translate(-54.09 542.24) rotate(-65.59)"/><polygon class="cls-12" points="360.99 387.72 333.67 375.32 363.86 345.1 360.99 387.72"/></g><g id="gun-3" data-name="gun"><rect class="cls-12" x="321.35" y="270.8" width="8" height="30" transform="translate(-71.39 244.89) rotate(-27.25)"/><circle class="cls-12" cx="332.22" cy="299.14" r="10" transform="translate(-76.73 249.51) rotate(-27.25)"/></g><use width="46.75" height="46.75" transform="matrix(1.67, -1.67, 0.71, 0.71, 100.14, 340.78)" xlink:href="#Box"/><use id="Box-27" data-name="Box" width="46.75" height="46.75" transform="matrix(1.47, 1.47, -0.71, 0.71, 224.9, 277.72)" xlink:href="#Box"/></svg>